<svg xmlns="http://www.w3.org/2000/svg" fill="none" viewBox="0 0 16 16">
  <path fill="#F39C12" d="M.635 5.53v8.251c0 .756.568 1.375 1.269 1.375h11.423c.701 0 1.27-.62 1.27-1.375V5.53z"/>
  <path fill="#F1C40F" d="M.635 4.843v8.25c0 .756.568 1.375 1.269 1.375h11.423c.701 0 1.27-.619 1.27-1.375v-8.25z"/>
  <path fill="#F1C40F" d="M1.27 3.468C.567 3.468 0 4.087 0 4.843v1.375h15.23V4.843c0-.756-.567-1.375-1.269-1.375z"/>
  <path fill="#E74C3C" d="M9.52 2.78H5.711v12.376h3.807V2.78z"/>
  <path fill="#C0392B" d="M5.004.03C4.37-.037 3.752.307 3.412.857c-.493.825-.198 1.856.656 2.337.275.206.57.275.866.275h5.361c.296 0 .598-.069.872-.275.855-.481 1.143-1.512.65-2.337-.494-.825-1.582-1.1-2.437-.62a1.47 1.47 0 0 0-.641.62h-.014c-.02.068-.038.068-.056.137L7.615 2.712 6.56.993C6.543.924 6.525.924 6.505.856H6.49a1.46 1.46 0 0 0-.636-.62 1.9 1.9 0 0 0-.851-.205zm-.105.826c.172 0 .35.068.51.137.053 0 .102.069.146.069.032.069.057.069.084.137h.02c.015 0 .03.069.043.069h.028c.01.069.026.069.035.069l.74 1.237H4.8c-.04 0-.078 0-.118-.068-.057 0-.114 0-.168-.07-.107 0-.202-.137-.272-.205-.21-.275-.241-.62-.056-.963.154-.206.426-.412.712-.412zm5.438 0c.286 0 .557.206.712.412.185.344.147.688-.063.963-.07.068-.158.206-.265.206-.054.069-.11.069-.168.069-.04.068-.085.068-.126.068H8.724l.74-1.237c.009 0 .025 0 .035-.069h.007c.002 0-.001 0 0 0h.02c.014 0 .029-.069.043-.069h.02c.027-.068.06-.068.091-.137.045 0 .094-.069.147-.069.16-.069.338-.137.51-.137"/>
  <path fill="#F39C12" d="M14.596 6.218H.635v2.063h13.961z"/>
  <path fill="#C0392B" d="M9.52 6.218H5.711v2.063h3.807V6.218zm0 8.25H5.711v.688h3.807v-.688z"/>
  <path fill="#E67E22" d="M5.712 6.218H.635v.688h5.077zm8.884 0H9.52v.688h5.077z"/>
</svg>
