<svg fill="none" xmlns="http://www.w3.org/2000/svg" viewBox="0 0 27 27">
  <circle cx="13.5" cy="13.5" r="13.5" fill="#D9212B"/>
  <path d="M16.453 10.928c4.2 4.2 5.076 3.324 2.627 5.773-3.197 3.197-6.619 2.858-8.938.538-2.32-2.32-2.569-5.832.45-8.851 2.45-2.45 1.66-1.66 5.86 2.54z" fill="#fff"/>
  <path d="M13.066 8.968l3.628-3.628a.81.81 0 111.145 1.146l-3.627 3.627-1.146-1.145zM7.443 19.936a1.08 1.08 0 010-1.527l1.581-1.58a5.1 5.1 0 001.528 1.526L8.97 19.936a1.08 1.08 0 01-1.528 0zm9.819-6.768l3.627-3.628a.81.81 0 111.146 1.146l-3.628 3.627-1.145-1.145zM6.727 4.13l16.255 16.255-1.146 1.146L5.581 5.276z" fill="#fff"/>
  <path fill="#fff" d="M6.727 4.13l16.255 16.255-1.146 1.146L5.581 5.276z"/>
  <path fill="#D9212B" d="M5.648 5.21l16.255 16.255-1.146 1.145L4.502 6.355z"/>
</svg>
