<svg fill="none" xmlns="http://www.w3.org/2000/svg" viewBox="0 0 30 30">
  <circle cx="15" cy="15" r="15" fill="#D9212B"/>
  <path d="M18.28 12.142c4.668 4.667 5.641 3.693 2.92 6.415-3.552 3.552-7.354 3.175-9.931.597-2.578-2.577-2.854-6.48.5-9.835 2.722-2.721 1.845-1.844 6.512 2.823z" fill="#fff"/>
  <path d="M14.516 9.964l4.03-4.03a.9.9 0 011.273 1.272l-4.03 4.031-1.273-1.273zM8.27 22.151a1.2 1.2 0 010-1.697l1.757-1.756.071.111c.39.609.906 1.125 1.515 1.515l.11.071-1.756 1.756a1.2 1.2 0 01-1.697 0zm10.91-7.52l4.03-4.03a.9.9 0 111.273 1.272l-4.03 4.03-1.273-1.272zM7.473 4.588L25.534 22.65l-1.273 1.273-18.06-18.06z" fill="#fff"/>
  <path fill="#fff" d="M7.473 4.588L25.534 22.65l-1.273 1.273-18.06-18.06z"/>
  <path fill="#D9212B" d="M6.273 5.788l18.061 18.06-1.272 1.274L5 7.06z"/>
</svg>
