<svg xmlns="http://www.w3.org/2000/svg" fill="none" viewBox="0 0 27 28">
  <path stroke="#ACACAC" stroke-miterlimit="10" stroke-width="1.4" d="m23 24.5-1.362-3.399.027-.133a12 12 0 0 0-.294-5.502 1.34 1.34 0 0 0-1.464-.942l-3.533.52-1.309-4.46a1.3 1.3 0 0 0-.643-.784 1.3 1.3 0 0 0-1.112-.072 1.37 1.37 0 0 0-.763 1.699l2.028 6.91-1.141-.623a1.42 1.42 0 0 0-1.038-.145 1.42 1.42 0 0 0-.842.674 1.415 1.415 0 0 0 .56 1.908l4.39 2.398.56 1.907"/>
  <path stroke="#ACACAC" stroke-width="1.8" d="M17.667 4.042h4.86c1.918 0 3.473 1.514 3.473 3.38V21.62c0 1.867-1.555 3.38-3.472 3.38H4.472C2.555 25 1 23.487 1 21.62V7.423c0-1.867 1.555-3.38 3.472-3.38h13.021m.174-2.705v4.657c0 .187.155.338.347.338a.343.343 0 0 0 .347-.338V1.338A.343.343 0 0 0 18.014 1a.343.343 0 0 0-.347.338Zm-9.723 0v4.657c0 .187.156.338.348.338a.343.343 0 0 0 .347-.338V1.338A.343.343 0 0 0 8.292 1a.343.343 0 0 0-.348.338Z"/>
</svg>
