<svg xmlns="http://www.w3.org/2000/svg" xmlns:xlink="http://www.w3.org/1999/xlink" fill="none" viewBox="0 0 24 24">
  <circle cx="12" cy="12" r="11.25" fill="#fff" stroke="#ACACAC" stroke-width="1.5"/>
  <g clip-path="url(#a)">
    <path fill="#F39C12" d="M6.5 9.875v6.5c0 .596.448 1.083 1 1.083h9c.552 0 1-.487 1-1.083v-6.5z"/>
    <path fill="#F1C40F" d="M6.5 9.333v6.5c0 .596.448 1.084 1 1.084h9c.552 0 1-.488 1-1.084v-6.5z"/>
    <path fill="#F1C40F" d="M7 8.25c-.552 0-1 .488-1 1.083v1.084h12V9.333c0-.595-.448-1.083-1-1.083z"/>
    <path fill="#E74C3C" d="M13.5 7.708h-3v9.75h3z"/>
    <path fill="#C0392B" d="M9.942 5.542c-.499-.055-.986.216-1.254.65-.388.65-.156 1.462.517 1.841.217.163.449.217.682.217h4.224c.233 0 .471-.054.688-.217.673-.379.9-1.191.511-1.841s-1.246-.867-1.92-.488q-.325.162-.505.488h-.011c-.016.054-.03.054-.044.108L12 7.654 11.169 6.3c-.014-.054-.028-.054-.044-.108h-.011a1.15 1.15 0 0 0-.5-.488 1.5 1.5 0 0 0-.672-.162m-.082.65c.135 0 .275.054.401.108.043 0 .08.054.116.054.024.054.045.054.066.108h.016c.012 0 .023.055.033.055h.022c.008.054.02.054.028.054l.583.975H9.783c-.032 0-.062 0-.094-.054-.044 0-.09 0-.132-.055-.084 0-.159-.108-.214-.162-.165-.217-.19-.488-.044-.758.121-.163.335-.325.56-.325m4.284 0c.226 0 .44.162.561.325a.67.67 0 0 1-.05.758c-.054.054-.124.162-.208.162-.042.055-.087.055-.132.055-.031.054-.067.054-.1.054h-1.341l.582-.975c.008 0 .02 0 .028-.054h.005q.002 0 0 0h.017c.01 0 .022-.055.033-.055h.017c.02-.054.046-.054.071-.108.035 0 .073-.054.115-.054.127-.054.267-.108.402-.108"/>
    <path fill="#F39C12" d="M17.5 10.417h-11v1.625h11z"/>
    <path fill="#C0392B" d="M13.5 10.417h-3v1.625h3zm0 6.5h-3v.541h3z"/>
    <path fill="#E67E22" d="M10.5 10.417h-4v.541h4zm7 0h-4v.541h4z"/>
  </g>
  <defs>
    <clipPath id="a">
      <path fill="#fff" d="M6 5h12v13H6z"/>
    </clipPath>
  </defs>
</svg>
