<svg fill="none" xmlns="http://www.w3.org/2000/svg" viewBox="0 0 30 30">
  <circle cx="15" cy="15" r="15" fill="#2EB773"/>
  <path d="M18.265 12.142c4.667 4.667 5.64 3.693 2.92 6.415-3.552 3.552-7.355 3.175-9.932.597-2.578-2.577-2.854-6.48.5-9.835 2.722-2.721 1.845-1.844 6.512 2.823z" fill="#fff"/>
  <path d="M14.508 9.964l4.03-4.03a.9.9 0 011.273 1.272l-4.03 4.031-1.273-1.273zM8.267 22.15a1.2 1.2 0 010-1.697l1.754-1.755.072.112a5 5 0 001.514 1.513l.111.072-1.754 1.755a1.2 1.2 0 01-1.697 0zm10.917-7.519l4.03-4.03a.9.9 0 111.273 1.272l-4.03 4.03-1.273-1.272z" fill="#fff"/>
</svg>
