<svg fill="none" xmlns="http://www.w3.org/2000/svg" viewBox="0 0 22 22">
  <circle cx="11" cy="11" r="11" fill="#E58B31"/>
  <path d="M13.405 8.904c3.422 3.422 4.136 2.709 2.14 4.704-2.604 2.605-5.393 2.329-7.283.439-1.89-1.89-2.093-4.752.368-7.213 1.995-1.995 1.352-1.352 4.775 2.07z" fill="#fff"/>
  <path d="M10.645 7.307L13.6 4.351a.66.66 0 01.934.934L11.578 8.24l-.933-.933zm-4.581 8.937a.88.88 0 010-1.244l1.288-1.288c.32.5.744.924 1.244 1.244l-1.288 1.288a.88.88 0 01-1.244 0zm8.002-5.514l2.956-2.956a.66.66 0 01.934.933L15 11.663l-.934-.934zM5.48 3.365l13.245 13.244-.934.934L4.547 4.298z" fill="#fff"/>
  <path fill="#fff" d="M5.48 3.365l13.245 13.244-.934.934L4.547 4.298z"/>
  <path fill="#E58B31" d="M4.602 4.245L17.847 17.49l-.934.933L3.668 5.18z"/>
</svg>
