<svg fill="none" xmlns="http://www.w3.org/2000/svg" viewBox="0 0 16 15">
  <path d="M7.406 11.156V5.36h1.188v5.796H7.406zM8 4.532c-.24 0-.42-.06-.54-.18-.12-.12-.18-.294-.18-.522 0-.24.06-.414.18-.522.12-.12.3-.18.54-.18.192 0 .354.06.486.18.144.108.216.282.216.522 0 .24-.072.42-.216.54A.742.742 0 018 4.532zM8 14.99c-1.02 0-1.98-.192-2.88-.576a7.63 7.63 0 01-2.376-1.584 7.63 7.63 0 01-1.584-2.376 7.261 7.261 0 01-.576-2.88c0-1.032.192-1.992.576-2.88.384-.9.912-1.686 1.584-2.358A7.477 7.477 0 015.12.734C6.02.35 6.98.158 8 .158c1.032 0 1.992.192 2.88.576a7.27 7.27 0 012.358 1.602 7.27 7.27 0 011.602 2.358c.384.888.576 1.848.576 2.88 0 1.02-.192 1.98-.576 2.88a7.477 7.477 0 01-1.602 2.376 7.413 7.413 0 01-2.358 1.584A7.177 7.177 0 018 14.99zm0-1.008c.888 0 1.716-.162 2.484-.486a6.521 6.521 0 002.052-1.386 6.328 6.328 0 001.368-2.034c.336-.78.504-1.614.504-2.502 0-.888-.168-1.716-.504-2.484a6.277 6.277 0 00-3.42-3.42A6.129 6.129 0 008 1.166c-.888 0-1.722.168-2.502.504a6.328 6.328 0 00-2.034 1.368A6.521 6.521 0 002.078 5.09a6.324 6.324 0 00-.486 2.484c0 .888.162 1.722.486 2.502a6.58 6.58 0 001.386 2.034 6.58 6.58 0 002.034 1.386c.78.324 1.614.486 2.502.486z" fill="#8165D6"/>
</svg>
