<svg fill="none" xmlns="http://www.w3.org/2000/svg" viewBox="0 0 86 35">
  <circle cx="22" cy="17" r="11" fill="#E58B31"/>
  <path d="M24.405 14.904c3.422 3.422 4.136 2.709 2.14 4.704-2.604 2.605-5.393 2.329-7.283.439-1.89-1.89-2.093-4.752.368-7.213 1.995-1.995 1.352-1.352 4.775 2.07z" fill="#fff"/>
  <path d="M21.645 13.307l2.955-2.956a.66.66 0 01.934.934l-2.956 2.955-.933-.933zm-4.581 8.937a.88.88 0 010-1.244l1.288-1.288c.32.5.744.924 1.244 1.244l-1.288 1.288a.88.88 0 01-1.244 0zm8.002-5.514l2.956-2.956a.66.66 0 01.934.933L26 17.663l-.934-.933zM16.48 9.365l13.245 13.244-.934.934-13.244-13.245z" fill="#fff"/>
  <path fill="#fff" d="M16.48 9.365l13.245 13.244-.934.934-13.244-13.245z"/>
  <path fill="#E58B31" d="M15.602 10.245L28.847 23.49l-.934.933L14.668 11.18z"/>
  <rect x="1" y="1" width="84" height="33" rx="16.5" stroke="#ACACAC" stroke-width="2"/>
</svg>
