<svg fill="none" xmlns="http://www.w3.org/2000/svg" viewBox="0 0 86 35">
  <rect x="1" y="1" width="84" height="33" rx="16.5" stroke="#ACACAC" stroke-width="2"/>
  <path d="M43.97 24.201c.903 0 1.566-.225 1.99-.677.424-.45.636-1.139.636-2.064v-9.037h1.538v9.037c0 .939-.171 1.725-.513 2.358a3.353 3.353 0 01-1.47 1.443c-.638.323-1.401.485-2.29.485-.856 0-1.574-.148-2.153-.444a3.01 3.01 0 01-1.306-1.238c-.291-.528-.437-1.146-.437-1.852 0-.47.054-.97.164-1.504.114-.538.278-1.08.492-1.627l1.36.492a9.54 9.54 0 00-.376 1.3c-.086.423-.13.808-.13 1.154 0 .684.203 1.217.609 1.6.41.383 1.039.574 1.887.574zm6.146-11.778h1.545v6.426c0 .578.118.993.355 1.244.242.246.696.369 1.36.369h.008V22h-.007c-1.048 0-1.855-.26-2.42-.78-.56-.523-.84-1.305-.84-2.344v-6.453zm5.366 5.031h1.538l.007 1.121c.005.242.028.433.069.574a.92.92 0 00.164.335c.068.078.15.148.246.212.437-.738.886-1.35 1.346-1.839.465-.487.937-.85 1.416-1.087a3.23 3.23 0 011.456-.362c.542 0 1.009.119 1.4.356.397.237.7.558.91.963.21.406.315.86.315 1.36 0 .22-.028.422-.083.61-.05.182-.123.346-.218.492.164.09.348.159.553.205.21.045.45.068.718.068h.007V22h-.007c-.428 0-.822-.06-1.182-.178a2.05 2.05 0 01-.875-.547c-.392.265-.868.452-1.43.56a9.312 9.312 0 01-1.797.165c-.943 0-1.74-.119-2.392-.355-.652-.237-1.12-.586-1.402-1.046a1.608 1.608 0 01-.526.758 2.66 2.66 0 01-.91.479 3.7 3.7 0 01-1.107.164h-.307c-.082 0-.142-.052-.178-.157-.041-.11-.062-.315-.062-.616 0-.296.02-.496.062-.601.036-.11.096-.164.178-.164h.307c.506 0 .887-.066 1.142-.198.255-.137.426-.344.512-.622.087-.283.13-.648.13-1.094v-1.094zm5.982.465c-.255 0-.536.073-.841.219-.3.145-.624.387-.97.724-.347.333-.716.786-1.108 1.36.214.087.46.149.738.185.278.037.577.055.896.055.323 0 .633-.02.93-.062.3-.045.567-.12.8-.225.236-.105.423-.246.56-.424.136-.178.205-.403.205-.677 0-.337-.11-.613-.328-.827-.22-.219-.513-.328-.882-.328zm6.918-1.648c.123.52.223 1.014.3 1.484.078.47.117.905.117 1.306 0 .592-.107 1.11-.322 1.551-.21.442-.546.784-1.011 1.026-.465.241-1.073.362-1.825.362h-.315c-.082 0-.141-.052-.178-.157-.04-.11-.061-.315-.061-.616 0-.296.02-.496.061-.601.037-.11.096-.164.178-.164h.315c.592 0 1.016-.13 1.271-.39.26-.26.39-.645.39-1.155 0-.287-.037-.62-.11-.998a27.173 27.173 0 00-.26-1.251l1.45-.396zm-1.258-2.132l1.114-1.115 1.108 1.115-1.108 1.114-1.114-1.114zm-2.386 0l1.115-1.115 1.107 1.115-1.107 1.114-1.115-1.114zM71.991 22h-1.538v-9.577h1.538V22z" fill="#ACACAC"/>
</svg>
