<svg fill="none" xmlns="http://www.w3.org/2000/svg" viewBox="0 0 23 20">
  <path d="M17.174 7.23c-1.145 0-2.072-.904-2.072-2.02 0-1.115.927-2.02 2.072-2.02 1.144 0 2.072.905 2.072 2.02 0 1.116-.928 2.02-2.072 2.02zm-.006 9.61c-2.518 0-4.559-2.143-4.559-4.786S14.65 9.66 17.17 9.66c2.517 0 4.558-.25 4.558 2.393s-2.04 4.786-4.559 4.786zM5.557 7.23c-1.145 0-2.073-.904-2.073-2.02 0-1.115.928-2.02 2.073-2.02 1.144 0 2.072.905 2.072 2.02 0 1.116-.928 2.02-2.072 2.02zm.002 9.61C3.04 16.84 1 14.697 1 12.054S3.041 9.66 5.559 9.66c2.518 0 4.559-.25 4.559 2.393s-2.041 4.786-4.56 4.786z" opacity=".7" stroke="#ACACAC" stroke-width="1.8" stroke-linecap="round" stroke-linejoin="round"/>
  <path d="M11.354 7.397c-1.602 0-2.9-1.266-2.9-2.828 0-1.561 1.298-2.828 2.9-2.828 1.603 0 2.901 1.267 2.901 2.828 0 1.562-1.299 2.828-2.9 2.828z" stroke="#ACACAC" stroke-width="1.8" stroke-linecap="round" stroke-linejoin="round"/>
  <path d="M11.357 18.313c-2.976 0-5.388-2.532-5.388-5.656 0-3.124 2.412-2.828 5.388-2.828 2.975 0 5.387-.296 5.387 2.828 0 3.124-2.412 5.656-5.387 5.656z" fill="#FCFCFC" stroke="#ACACAC" stroke-width="1.8" stroke-linecap="round" stroke-linejoin="round"/>
</svg>
