<svg fill="none" xmlns="http://www.w3.org/2000/svg" viewBox="0 0 27 27">
  <circle cx="13.5" cy="13.5" r="13.5" fill="#2EB773"/>
  <path d="M16.441 10.928c4.2 4.2 5.076 3.324 2.627 5.773-3.196 3.197-6.618 2.858-8.938.538-2.32-2.32-2.569-5.832.45-8.851 2.45-2.45 1.66-1.66 5.861 2.54z" fill="#fff"/>
  <path d="M13.059 8.968l3.627-3.628a.81.81 0 111.146 1.146l-3.628 3.627-1.145-1.145zM7.443 19.935a1.08 1.08 0 010-1.527l1.58-1.58a5.09 5.09 0 001.527 1.527l-1.58 1.58a1.08 1.08 0 01-1.527 0zm9.823-6.767l3.627-3.627a.81.81 0 011.146 1.145l-3.628 3.627-1.145-1.145z" fill="#fff"/>
</svg>
