<svg fill="none" xmlns="http://www.w3.org/2000/svg" viewBox="0 0 20 22">
  <path d="M2 3.65h16a1.35 1.35 0 110 2.7H2a1.35 1.35 0 110-2.7z" stroke="#ACACAC" stroke-width="1.3"/>
  <mask id="nRyEzPR64Jdka" fill="#fff">
    <path d="M9.625 10a.5.5 0 01.5.5v7a.5.5 0 01-1 0v-7a.5.5 0 01.5-.5z"/>
  </mask>
  <path d="M10.125 10.5h-1.3v7h2.6v-7h-1.3zm-1 7h1.3v-7h-2.6v7h1.3zm0-7h1.3a.8.8 0 01-.8.8V8.7a1.8 1.8 0 00-1.8 1.8h1.3zm.5 7.5v-1.3a.8.8 0 01.8.8h-2.6a1.8 1.8 0 001.8 1.8V18zm.5-.5h-1.3a.8.8 0 01.8-.8v2.6a1.8 1.8 0 001.8-1.8h-1.3zm0-7h1.3a1.8 1.8 0 00-1.8-1.8v2.6a.8.8 0 01-.8-.8h1.3z" fill="#ACACAC" mask="url(#nRyEzPR64Jdka)"/>
  <mask id="nRyEzPR64Jdkb" fill="#fff">
    <path d="M6.625 10a.5.5 0 01.5.5v7a.5.5 0 01-1 0v-7a.5.5 0 01.5-.5z"/>
  </mask>
  <path d="M7.125 10.5h-1.3v7h2.6v-7h-1.3zm-1 7h1.3v-7h-2.6v7h1.3zm0-7h1.3a.8.8 0 01-.8.8V8.7a1.8 1.8 0 00-1.8 1.8h1.3zm.5 7.5v-1.3a.8.8 0 01.8.8h-2.6a1.8 1.8 0 001.8 1.8V18zm.5-.5h-1.3a.8.8 0 01.8-.8v2.6a1.8 1.8 0 001.8-1.8h-1.3zm0-7h1.3a1.8 1.8 0 00-1.8-1.8v2.6a.8.8 0 01-.8-.8h1.3z" fill="#ACACAC" mask="url(#nRyEzPR64Jdkb)"/>
  <mask id="nRyEzPR64Jdkc" fill="#fff">
    <path d="M12.625 10a.5.5 0 01.5.5v7a.5.5 0 01-1 0v-7a.5.5 0 01.5-.5z"/>
  </mask>
  <path d="M13.125 10.5h-1.3v7h2.6v-7h-1.3zm-1 7h1.3v-7h-2.6v7h1.3zm0-7h1.3a.8.8 0 01-.8.8V8.7a1.8 1.8 0 00-1.8 1.8h1.3zm.5 7.5v-1.3a.8.8 0 01.8.8h-2.6a1.8 1.8 0 001.8 1.8V18zm.5-.5h-1.3a.8.8 0 01.8-.8v2.6a1.8 1.8 0 001.8-1.8h-1.3zm0-7h1.3a1.8 1.8 0 00-1.8-1.8v2.6a.8.8 0 01-.8-.8h1.3z" fill="#ACACAC" mask="url(#nRyEzPR64Jdkc)"/>
  <path d="M8 .65h5c.746 0 1.35.604 1.35 1.35v1.35h-7.7V2c0-.746.604-1.35 1.35-1.35zm9.309 6l-.84 13.434a1.35 1.35 0 01-1.348 1.266H4.88a1.35 1.35 0 01-1.333-1.134l-.015-.132-.84-13.434H17.31z" stroke="#ACACAC" stroke-width="1.3"/>
</svg>
