<svg fill="none" xmlns="http://www.w3.org/2000/svg" viewBox="0 0 40 40">
  <rect width="40" height="40" rx="10" fill="#ECECEC"/>
  <path d="M15.26 9.655a7.199 7.199 0 018.716-.169l.162.12a7.463 7.463 0 013.06 6.025v4.589a9.12 9.12 0 001.915 5.59l1.244 1.603a1.192 1.192 0 01-.939 1.92H10.176a1.175 1.175 0 01-.976-1.83l.06-.081 1.286-1.6a9 9 0 001.985-5.638v-4.885a7.2 7.2 0 012.73-5.644z" stroke="#ACACAC" stroke-width="2"/>
  <path d="M23.534 30c0 1.473-1.492 2.667-3.333 2.667-1.841 0-3.334-1.194-3.334-2.667h6.667z" stroke="#ACACAC" stroke-width="1.3"/>
</svg>
