<svg xmlns="http://www.w3.org/2000/svg" fill="none" viewBox="0 -.5 25 25">
  <path stroke="#0000f7" stroke-linecap="round" stroke-linejoin="round" stroke-width="1.5" d="M6.363 6.362c.88-.927 1.191-1.187 1.566-1.308a1.65 1.65 0 0 1 .793-.011c.344.1.435.176 1.563 1.3.991.987 1.09 1.094 1.185 1.287.182.339.21.739.078 1.1-.1.275-.242.457-.843 1.06l-.392.393a.34.34 0 0 0-.06.394 10.1 10.1 0 0 0 3.59 3.6.445.445 0 0 0 .52-.073l.377-.371q.35-.359.74-.674c.407-.25.914-.272 1.341-.059.21.1.278.162 1.3 1.182 1.054 1.051 1.084 1.084 1.2 1.325a1.32 1.32 0 0 1-.006 1.279c-.113.224-.182.305-.775.911-.358.366-.695.7-.749.749a2.44 2.44 0 0 1-1.75.554 8 8 0 0 1-3.285-1.049 15.1 15.1 0 0 1-5.514-5q-.455-.661-.806-1.382a6.87 6.87 0 0 1-.936-3.54c.048-.65.36-1.253.863-1.667" clip-rule="evenodd"/>
</svg>
