<svg viewBox="0 0 24 24" version="1.1" xmlns="http://www.w3.org/2000/svg" fill="#000">
  <path d="M18 2a2.5 2.5 0 012.5 2.5v14.25a.75.75 0 01-.75.75H5.5a1 1 0 001 1h13.25a.75.75 0 010 1.5H6.5A2.5 2.5 0 014 19.5v-15A2.5 2.5 0 016.5 2H18zm0 1.5H6.5a1 1 0 00-1 1V18H19V4.5a1 1 0 00-1-1zm-3.25 8a.75.75 0 01.743.648l.007.102v.5c0 1-1.383 1.75-3.25 1.75-1.795 0-3.143-.693-3.244-1.636L9 12.749v-.499a.75.75 0 01.648-.743l.102-.007h5zM12.25 7c.967 0 1.75.779 1.75 1.745a1.75 1.75 0 11-3.5 0C10.5 7.78 11.283 7 12.25 7z" fill="#acacac" fill-rule="nonzero"/>
</svg>
