<svg xmlns="http://www.w3.org/2000/svg" xmlns:xlink="http://www.w3.org/1999/xlink" fill="none" viewBox="0 0 29 28">
  <g stroke="#ACACAC" stroke-width="1.8" clip-path="url(#a)">
    <path d="M18.853 4.308h5.075c2.002 0 3.625 1.607 3.625 3.59v15.076c0 1.983-1.623 3.59-3.625 3.59H5.078c-2.002 0-3.625-1.607-3.625-3.59V7.897c0-1.982 1.623-3.59 3.625-3.59h13.594"/>
    <path d="M19.938 6.462V1.436a.36.36 0 0 0-.363-.36.36.36 0 0 0-.363.36v5.026a.36.36 0 0 0 .363.358c.2 0 .363-.16.363-.358Zm-10.148 0V1.436a.36.36 0 0 0-.363-.36.36.36 0 0 0-.363.36v5.026a.36.36 0 0 0 .363.358c.2 0 .362-.16.362-.358Z"/>
    <path stroke-linecap="round" stroke-linejoin="round" stroke-miterlimit="10" d="M13.694 17.248a1.915 1.915 0 0 0 2.598-.69 1.87 1.87 0 0 0-.696-2.573 1.92 1.92 0 0 0-1.444-.188 1.9 1.9 0 0 0-1.155.878 1.87 1.87 0 0 0 .697 2.573"/>
    <path stroke-linecap="round" stroke-linejoin="round" stroke-miterlimit="10" d="m8.256 12.671.617-1.06c.178-.302.47-.523.81-.614a1.35 1.35 0 0 1 1.012.13c1.101.63 2 .117 1.998-1.145a1.3 1.3 0 0 1 .393-.931 1.34 1.34 0 0 1 .941-.385l1.4.005a1.166 1.166 0 0 1 1.175 1.154v.153c-.003 1.258.896 1.772 2.001 1.143l.133-.076c.563-.312 1.282-.126 1.597.431l.705 1.198a1.31 1.31 0 0 1-.484 1.803c-1.104.629-1.104 1.656-.004 2.285a1.32 1.32 0 0 1 .489 1.805l-.618 1.06a1.35 1.35 0 0 1-1.822.484c-1.1-.63-2-.117-1.997 1.145a1.3 1.3 0 0 1-.392.931 1.33 1.33 0 0 1-.943.385l-1.4-.006a1.166 1.166 0 0 1-1.175-1.153v-.153c.004-1.258-.896-1.772-2-1.143l-.134.076c-.563.312-1.281.126-1.596-.432l-.705-1.197a1.3 1.3 0 0 1-.134-1c.09-.338.313-.627.618-.803 1.104-.629 1.103-1.656.003-2.286a1.33 1.33 0 0 1-.62-.802 1.3 1.3 0 0 1 .132-1.002"/>
  </g>
  <defs>
    <clipPath id="a">
      <path fill="#fff" d="M0 0h29v28H0z"/>
    </clipPath>
  </defs>
</svg>
