<svg xmlns="http://www.w3.org/2000/svg" fill="none" viewBox="0 0 23 23">
  <circle cx="11.5" cy="11.5" r="11" fill="#fff" stroke="#ACACAC"/>
  <path fill="#ACACAC" d="M11.2 14.98v-.34q0-.58-.12-.98-.12-.42-.46-.84t-1.02-.98q-.72-.6-1.26-1.12a4.5 4.5 0 0 1-.82-1.16q-.28-.64-.28-1.54 0-1.62 1.04-2.56t2.94-.94q1.2 0 2.16.28.98.28 1.78.7l-.62 1.4a10 10 0 0 0-1.44-.58q-.76-.26-1.76-.26-1.16 0-1.8.52-.62.52-.62 1.48 0 .6.18 1.02t.62.86 1.2 1.1q.66.54 1.02 1.04t.5 1.06q.16.54.16 1.3v.54zm.62 4.3a1.25 1.25 0 0 1-.86-.32q-.36-.32-.36-1.04 0-.74.36-1.04t.86-.3q.54 0 .88.3.36.3.36 1.04 0 .72-.36 1.04-.34.32-.88.32"/>
</svg>
