<svg fill="none" xmlns="http://www.w3.org/2000/svg" viewBox="0 0 58 62">
  <path d="M22.025 8.203a12.5 12.5 0 0113.551-.258l.399.258 14 9.413A12.501 12.501 0 0155.5 27.99V47c0 6.904-5.596 12.5-12.5 12.5H15C8.096 59.5 2.5 53.904 2.5 47V27.99a12.5 12.5 0 015.205-10.151l.32-.223 14-9.413z" stroke="#8165D6" stroke-width="5"/>
  <path d="M41.656 40.5C39.781 43.5 35.731 48 29 48c-6.731 0-10.781-5-12.656-7.5" stroke="#8165D6" stroke-width="4.8"/>
  <ellipse cx="41.656" cy="40.5" rx="2.344" ry="2.5" fill="#8165D6"/>
  <ellipse cx="16.344" cy="40.5" rx="2.344" ry="2.5" fill="#8165D6"/>
</svg>
