<svg viewBox="0 0 24 24" version="1.1" xmlns="http://www.w3.org/2000/svg" fill="#000">
  <path d="M10.837 3.774a.662.662 0 00.613-.66v-1.26c0-.292.323-.457.55-.282l3.745 2.911a.67.67 0 01.001 1.05L12 8.456c-.226.176-.55.01-.55-.281V7.01c0-.406-.353-.721-.744-.661-2.739.428-4.747 3.147-4.12 6.201.125.613.365 1.186.694 1.698a1.27 1.27 0 01-.316 1.702l-.021.014c-.545.398-1.321.286-1.692-.286A7.791 7.791 0 014 11.43c0-4.026 3.008-7.328 6.837-7.655zm2.326 16.452a.662.662 0 00-.613.66v1.26c0 .292-.323.457-.55.282l-3.745-2.911a.67.67 0 01-.001-1.05L12 15.544c.226-.176.55-.01.55.281v1.164c0 .406.353.721.744.661 2.739-.428 4.747-3.147 4.12-6.201a4.995 4.995 0 00-.694-1.698 1.27 1.27 0 01.316-1.702l.021-.014c.545-.398 1.321-.286 1.692.286A7.791 7.791 0 0120 12.57c0 4.026-3.008 7.328-6.837 7.655z" fill="#acacac" fill-rule="evenodd"/>
</svg>
