<svg fill="none" xmlns="http://www.w3.org/2000/svg" viewBox="0 0 39 39">
  <path d="M1.25 16A8.75 8.75 0 0110 7.25h13A8.75 8.75 0 0131.75 16v13A8.75 8.75 0 0123 37.75H10A8.75 8.75 0 011.25 29V16z" stroke="#ACACAC" stroke-width="2.5"/>
  <path fill="#ECECEC" d="M15.758 9.08L24.838 0l13.93 13.93-9.08 9.08z"/>
  <path d="M13.114 26.562A1.116 1.116 0 0112 25.448v-6.213c.001-.295.118-.578.327-.787l16.703-16.7a4.041 4.041 0 015.718 0l2.067 2.066a4.042 4.042 0 010 5.718L20.116 26.235a1.11 1.11 0 01-.789.327h-6.213zm1.115-6.866v4.637h4.636L30.619 12.58l-4.636-4.636-11.754 11.752zm17.966-8.691l3.048-3.048a1.817 1.817 0 000-2.566l-2.07-2.072a1.816 1.816 0 00-2.566 0l-3.05 3.05 4.638 4.636z" fill="#ACACAC"/>
</svg>
