<svg xmlns="http://www.w3.org/2000/svg" xmlns:xlink="http://www.w3.org/1999/xlink" fill="none" viewBox="0 0 16 17">
  <g clip-path="url(#a)">
    <path fill="#F39C12" d="M.633 6.188v8.25c0 .756.568 1.374 1.269 1.374h11.423c.701 0 1.27-.618 1.27-1.374v-8.25z"/>
    <path fill="#F1C40F" d="M.633 5.5v8.25c0 .756.568 1.375 1.269 1.375h11.423c.701 0 1.27-.619 1.27-1.375V5.5z"/>
    <path fill="#F1C40F" d="M1.27 4.125C.567 4.125 0 4.744 0 5.5v1.375h15.23V5.5c0-.756-.567-1.375-1.269-1.375z"/>
    <path fill="#E74C3C" d="M9.519 3.438H5.71v12.375h3.808z"/>
    <path fill="#C0392B" d="M5.003.687C4.369.62 3.75.962 3.41 1.512c-.493.825-.199 1.857.656 2.338.275.206.57.275.866.275h5.36c.297 0 .598-.069.873-.275.855-.481 1.143-1.513.65-2.338-.494-.825-1.582-1.1-2.437-.618q-.413.206-.642.618h-.014c-.02.07-.038.07-.055.138L7.614 3.369 6.559 1.65c-.017-.069-.035-.069-.055-.138H6.49a1.45 1.45 0 0 0-.636-.618 1.9 1.9 0 0 0-.851-.207m-.105.825c.172 0 .35.07.51.138.053 0 .102.069.146.069.031.068.057.068.084.137h.02c.015 0 .03.069.043.069h.028c.01.069.026.069.034.069l.74 1.237H4.8c-.04 0-.079 0-.118-.069-.057 0-.114 0-.168-.068-.107 0-.202-.138-.272-.207-.21-.275-.241-.618-.056-.962.154-.206.426-.413.712-.413m5.437 0c.287 0 .558.207.712.413.186.344.148.687-.062.962-.07.07-.158.207-.266.207-.053.068-.11.068-.167.068-.04.07-.085.07-.126.07H8.723l.74-1.238c.009 0 .025 0 .035-.07h.007c.002 0-.002 0 0 0h.02c.013 0 .029-.068.043-.068h.02c.027-.069.06-.069.091-.137.045 0 .094-.069.147-.069.16-.069.338-.138.51-.138"/>
    <path fill="#F39C12" d="M14.594 6.875H.633v2.063h13.961z"/>
    <path fill="#C0392B" d="M9.519 6.875H5.71v2.063h3.808zm0 8.25H5.71v.688h3.808z"/>
    <path fill="#E67E22" d="M5.71 6.875H.633v.688H5.71zm8.883 0H9.516v.688h5.076z"/>
  </g>
  <defs>
    <clipPath id="a">
      <path fill="#fff" d="M0 0h15.231v16.5H0z"/>
    </clipPath>
  </defs>
</svg>
