<svg xmlns="http://www.w3.org/2000/svg" fill="none" viewBox="0 0 27 26">
  <path stroke="#ACACAC" stroke-width="1.8" d="M17.667 4.042h4.86c1.918 0 3.473 1.514 3.473 3.38V21.62c0 1.867-1.555 3.38-3.472 3.38H4.472C2.555 25 1 23.487 1 21.62V7.423c0-1.867 1.555-3.38 3.472-3.38h13.021M1.69 12.666h7.648c.19 0 .343-.15.343-.334A.34.34 0 0 0 9.338 12H1.69c-.19 0-.343.15-.343.333s.154.334.343.334Zm11.81-.5c0 1.012-.855 1.833-1.91 1.833s-1.91-.82-1.91-1.833.856-1.834 1.91-1.834c1.055 0 1.91.821 1.91 1.834Zm12.158 3.5h-4.524c-.189 0-.342.149-.342.333s.153.333.342.333h4.524a.337.337 0 0 0 .342-.333.34.34 0 0 0-.342-.333Zm-8.686.5c0-1.013.855-1.834 1.91-1.834s1.91.821 1.91 1.834c0 1.012-.855 1.833-1.91 1.833s-1.91-.82-1.91-1.833Zm-9.023-.834H2.037c-.19 0-.343.15-.343.334s.154.333.343.333h5.912c.19 0 .343-.15.343-.333a.34.34 0 0 0-.343-.334Zm-.352.338v1.991c0 .187.156.338.347.338a.343.343 0 0 0 .348-.338v-1.99a.343.343 0 0 0-.348-.339.343.343 0 0 0-.347.338Zm3.473 3.83c0 1.012-.855 1.833-1.91 1.833s-1.91-.82-1.91-1.833.855-1.833 1.91-1.833 1.91.82 1.91 1.833Zm6.598-18.162v4.657c0 .187.155.338.347.338a.343.343 0 0 0 .347-.338V1.338A.343.343 0 0 0 18.014 1a.343.343 0 0 0-.347.338Zm-9.723 0v4.657c0 .187.156.338.348.338a.343.343 0 0 0 .347-.338V1.338A.343.343 0 0 0 8.292 1a.343.343 0 0 0-.348.338Z"/>
</svg>
