<svg xmlns="http://www.w3.org/2000/svg" fill="none" viewBox="0 0 18 20">
  <path fill="#F39C12" d="M.75 7.313v9.75c0 .893.672 1.625 1.5 1.625h13.5c.829 0 1.5-.732 1.5-1.625v-9.75z"/>
  <path fill="#F1C40F" d="M.75 6.5v9.75c0 .894.672 1.625 1.5 1.625h13.5c.829 0 1.5-.731 1.5-1.625V6.5z"/>
  <path fill="#F1C40F" d="M1.5 4.875C.672 4.875 0 5.606 0 6.5v1.625h18V6.5c0-.894-.671-1.625-1.5-1.625z"/>
  <path fill="#E74C3C" d="M11.25 4.063h-4.5v14.625h4.5z"/>
  <path fill="#C0392B" d="M5.914.812c-.75-.08-1.48.325-1.881.975-.584.975-.235 2.194.775 2.763.325.244.673.325 1.023.325h6.335c.35 0 .707-.081 1.032-.325 1.01-.569 1.35-1.788.767-2.763s-1.869-1.3-2.88-.73q-.488.243-.758.73h-.016c-.024.082-.045.082-.066.163L8.999 3.981 7.754 1.95c-.021-.081-.042-.081-.066-.163H7.67a1.7 1.7 0 0 0-.751-.73A2.2 2.2 0 0 0 5.914.811m-.124.975c.203 0 .413.082.602.163.064 0 .12.081.173.081.037.081.068.081.1.163h.024c.017 0 .035.08.05.08h.033c.012.082.03.082.04.082l.876 1.463H5.674c-.048 0-.093 0-.14-.082-.067 0-.134 0-.198-.08-.126 0-.239-.163-.322-.245-.248-.325-.284-.73-.066-1.137.183-.244.504-.488.842-.488m6.426 0c.338 0 .66.244.841.488.22.406.175.812-.074 1.137-.082.082-.187.244-.313.244-.063.081-.13.081-.198.081-.047.082-.1.082-.149.082h-2.012l.874-1.463c.01 0 .029 0 .041-.081h.008c-.001 0 .002 0 0 0h.025c.015 0 .033-.081.05-.081h.024c.032-.082.07-.082.107-.163.054 0 .11-.081.174-.081.19-.081.4-.163.602-.163"/>
  <path fill="#F39C12" d="M17.25 8.125H.75v2.438h16.5z"/>
  <path fill="#C0392B" d="M11.25 8.125h-4.5v2.438h4.5zm0 9.75h-4.5v.813h4.5z"/>
  <path fill="#E67E22" d="M6.75 8.125h-6v.813h6zm10.5 0h-6v.813h6z"/>
</svg>
