<svg xmlns="http://www.w3.org/2000/svg" fill="none" viewBox="0 0 299 159">
  <path fill="#0000F7" d="M83.516 149.328q-8.844 0-16.348-4.422T55.242 132.98t-4.422-16.348v-39.21a3 3 0 0 1 3-3h13.832a3 3 0 0 1 3 3v36.262q0 5.226 3.618 8.844t8.844 3.618h24.388q4.02 0 6.7-2.814 2.814-2.814 2.814-6.7v-41.22a3 3 0 0 1 3-3h13.698a3 3 0 0 1 3 3v44.838q0 7.907-4.02 14.606-3.885 6.7-10.586 10.586-6.7 3.886-14.606 3.886zm1.206-92.944a3 3 0 0 1 3-3h13.007a3 3 0 0 1 3 3.022l-.092 12.894a3 3 0 0 1-2.999 2.978H87.722a3 3 0 0 1-3-3zm89.071 69.762q-7.236 0-13.266-3.484a27.7 27.7 0 0 1-9.648-9.648q-3.484-6.03-3.484-13.132V34.14a3 3 0 0 1 3-3h13.832a3 3 0 0 1 3 3v65.206q0 1.608.938 2.68.938.939 2.546.938h6.7l.461.462a3 3 0 0 1 .879 2.121v18.017c0 .795-.317 1.558-.879 2.121l-.461.461z"/>
  <path fill="#0000F7" d="M177.367 102.964h14.204q1.608 0 2.814-.938 1.089-.968 1.522-2.483a2.4 2.4 0 0 0 .086-.672V78.508a3 3 0 0 1 2.98-3l14.368-.092a3 3 0 0 1 3.02 3v21.198q0 1.475.804 2.412.938.939 2.412.938h11.792l1.34 1.34v19.322c0 .759-.288 1.489-.805 2.044l-.443.476h-12.018q-4.289 0-8.174-1.742a17 17 0 0 1-3.487-2.304c-1.512-1.296-3.93-1.361-5.523-.166q-1.803 1.352-4.122 2.336-4.422 1.876-8.576 1.876h-12.194zm8.576 39.582a3 3 0 0 1 3-3h32.056c1.656 0 3 1.344 3 3v13.028a3 3 0 0 1-3 3h-32.056a3 3 0 0 1-3-3z"/>
  <path fill="#0000F7" d="M231.411 102.964h4.288q1.608 0 2.814-.938 1.341-.938 1.608-2.546l2.546-13.802q1.475-8.307 8.174-13.802 6.834-5.494 15.276-5.494h7.504q6.7 0 12.462 3.35 5.763 3.35 9.112 9.112 3.35 5.628 3.35 12.462v14.472q0 5.495-2.814 10.184-2.68 4.69-7.37 7.504-4.555 2.68-10.05 2.68h-14.606q-4.287 0-7.906-1.474-2.266-.923-4.374-2.74c-1.394-1.201-3.525-1.201-4.919 0q-2.109 1.817-4.375 2.74-3.483 1.474-8.04 1.474h-2.68zm44.302 0a3 3 0 0 0 3-3v-8.926q0-.804-.536-1.474-.535-.67-1.474-.67h-12.73q-1.473 0-2.01 1.876l-2.081 10.016a3 3 0 0 0-.063.611v.227q0 1.34 1.34 1.34zM18.849 41.386a6 6 0 0 1-8.68-.166l-7.218-7.86a3 3 0 0 1 .016-4.077l7.235-7.75a6 6 0 0 1 8.61-.165l9.318 9.241a1 1 0 0 1 .006 1.414zm25.115 0a6 6 0 0 0 8.679-.166l7.219-7.86a3 3 0 0 0-.017-4.077l-7.234-7.75A6 6 0 0 0 44 21.369l-9.318 9.241a1 1 0 0 0-.005 1.414zm-2.575 2.574a6 6 0 0 1-.167 8.678l-7.86 7.22a3 3 0 0 1-4.077-.017l-7.749-7.235a6 6 0 0 1-.166-8.61l9.241-9.318a1 1 0 0 1 1.415-.006zm0-25.115a6 6 0 0 0-.167-8.68l-7.86-7.218a3 3 0 0 0-4.077.016l-7.749 7.235a6 6 0 0 0-.166 8.61l9.241 9.318a1 1 0 0 0 1.415.006z"/>
</svg>
