<svg xmlns="http://www.w3.org/2000/svg" fill="none" viewBox="0 0 23 19">
  <path stroke="#0000F7" stroke-linecap="round" stroke-linejoin="round" stroke-opacity=".6" stroke-width="1.8" d="M17.064 6.631a2.072 2.072 0 1 1 0-4.144 2.072 2.072 0 0 1 0 4.144m.086 9.858c-2.252.011-.473-2.198-.473-4.91 0-2.711-4.274-2.455.473-2.455 2.517 0 4.559-.256 4.559 2.455s-2.042 4.91-4.56 4.91M5.455 6.631a2.072 2.072 0 1 1 0-4.144 2.072 2.072 0 0 1 0 4.144m.002 9.858c-2.517 0-4.559-2.198-4.559-4.91 0-2.711 2.042-2.455 4.56-2.455 5.055 0 .44-.335.44 2.376-.5 2.5 2 5-.44 4.989"/>
  <path stroke="#0000F7" stroke-linecap="round" stroke-linejoin="round" stroke-width="2" d="M11.257 6.802a2.901 2.901 0 1 1 0-5.802 2.901 2.901 0 0 1 0 5.802M11.259 18c-2.976 0-5.388-2.598-5.388-5.802 0-3.205 2.412-2.901 5.388-2.901s5.388-.304 5.388 2.9c0 3.205-2.412 5.803-5.388 5.803"/>
</svg>
